<svg id="visual" viewBox="0 0 1280 300" width="1280" height="300" xmlns="http://www.w3.org/2000/svg" xmlns:xlink="http://www.w3.org/1999/xlink" version="1.1"><rect x="0" y="0" width="1280" height="300" fill="#11131b"></rect><path d="M0 76L42.7 82.7C85.3 89.3 170.7 102.7 256 103.5C341.3 104.3 426.7 92.7 512 92C597.3 91.3 682.7 101.7 768 102.5C853.3 103.3 938.7 94.7 1024 94.8C1109.3 95 1194.7 104 1237.3 108.5L1280 113L1280 301L1237.3 301C1194.7 301 1109.3 301 1024 301C938.7 301 853.3 301 768 301C682.7 301 597.3 301 512 301C426.7 301 341.3 301 256 301C170.7 301 85.3 301 42.7 301L0 301Z" fill="#263257"></path><path d="M0 175L42.7 175.2C85.3 175.3 170.7 175.7 256 176.7C341.3 177.7 426.7 179.3 512 176.5C597.3 173.7 682.7 166.3 768 160.3C853.3 154.3 938.7 149.7 1024 153.3C1109.3 157 1194.7 169 1237.3 175L1280 181L1280 301L1237.3 301C1194.7 301 1109.3 301 1024 301C938.7 301 853.3 301 768 301C682.7 301 597.3 301 512 301C426.7 301 341.3 301 256 301C170.7 301 85.3 301 42.7 301L0 301Z" fill="#3e5475"></path><path d="M0 223L42.7 213.5C85.3 204 170.7 185 256 182.3C341.3 179.7 426.7 193.3 512 194.7C597.3 196 682.7 185 768 185.7C853.3 186.3 938.7 198.7 1024 204.7C1109.3 210.7 1194.7 210.3 1237.3 210.2L1280 210L1280 301L1237.3 301C1194.7 301 1109.3 301 1024 301C938.7 301 853.3 301 768 301C682.7 301 597.3 301 512 301C426.7 301 341.3 301 256 301C170.7 301 85.3 301 42.7 301L0 301Z" fill="#5b7691"></path><path d="M0 219L42.7 219.7C85.3 220.3 170.7 221.7 256 228C341.3 234.3 426.7 245.7 512 252.3C597.3 259 682.7 261 768 258.3C853.3 255.7 938.7 248.3 1024 242.2C1109.3 236 1194.7 231 1237.3 228.5L1280 226L1280 301L1237.3 301C1194.7 301 1109.3 301 1024 301C938.7 301 853.3 301 768 301C682.7 301 597.3 301 512 301C426.7 301 341.3 301 256 301C170.7 301 85.3 301 42.7 301L0 301Z" fill="#7d9aae"></path></svg>