<svg id="visual" viewBox="0 0 1280 300" width="1280" height="300" xmlns="http://www.w3.org/2000/svg" xmlns:xlink="http://www.w3.org/1999/xlink" version="1.1"><rect x="0" y="0" width="1280" height="300" fill="#11131b"></rect><path d="M0 224L42.7 214.2C85.3 204.3 170.7 184.7 256 176.5C341.3 168.3 426.7 171.7 512 183C597.3 194.3 682.7 213.7 768 214.5C853.3 215.3 938.7 197.7 1024 195.8C1109.3 194 1194.7 208 1237.3 215L1280 222L1280 0L1237.3 0C1194.7 0 1109.3 0 1024 0C938.7 0 853.3 0 768 0C682.7 0 597.3 0 512 0C426.7 0 341.3 0 256 0C170.7 0 85.3 0 42.7 0L0 0Z" fill="#263257"></path><path d="M0 127L42.7 133.3C85.3 139.7 170.7 152.3 256 153.3C341.3 154.3 426.7 143.7 512 141.2C597.3 138.7 682.7 144.3 768 141.7C853.3 139 938.7 128 1024 126C1109.3 124 1194.7 131 1237.3 134.5L1280 138L1280 0L1237.3 0C1194.7 0 1109.3 0 1024 0C938.7 0 853.3 0 768 0C682.7 0 597.3 0 512 0C426.7 0 341.3 0 256 0C170.7 0 85.3 0 42.7 0L0 0Z" fill="#3e5475"></path><path d="M0 114L42.7 113.7C85.3 113.3 170.7 112.7 256 112.3C341.3 112 426.7 112 512 115C597.3 118 682.7 124 768 119.8C853.3 115.7 938.7 101.3 1024 97.8C1109.3 94.3 1194.7 101.7 1237.3 105.3L1280 109L1280 0L1237.3 0C1194.7 0 1109.3 0 1024 0C938.7 0 853.3 0 768 0C682.7 0 597.3 0 512 0C426.7 0 341.3 0 256 0C170.7 0 85.3 0 42.7 0L0 0Z" fill="#5b7691"></path><path d="M0 46L42.7 50.8C85.3 55.7 170.7 65.3 256 63.7C341.3 62 426.7 49 512 44C597.3 39 682.7 42 768 47C853.3 52 938.7 59 1024 63.8C1109.3 68.7 1194.7 71.3 1237.3 72.7L1280 74L1280 0L1237.3 0C1194.7 0 1109.3 0 1024 0C938.7 0 853.3 0 768 0C682.7 0 597.3 0 512 0C426.7 0 341.3 0 256 0C170.7 0 85.3 0 42.7 0L0 0Z" fill="#7d9aae"></path></svg>